<svg xmlns="http://www.w3.org/2000/svg" width="192" height="192" viewBox="0 0 192 192" role="img" aria-labelledby="title desc">
  <title id="title">Dr. Khaled Badran Clinic placeholder icon</title>
  <desc id="desc">Warm burgundy and ivory clinic icon with KB initials.</desc>
  <rect width="192" height="192" rx="32" fill="#F8F7F0"/>
  <rect x="20" y="20" width="152" height="152" rx="24" fill="#FFFFFF" stroke="#C7B6A2" stroke-width="4"/>
  <path d="M52 120V72h14v20h8l18-20h18L87 97l25 23H92l-18-17h-8v17H52Z" fill="#844E41"/>
  <path d="M122 120V72h22c10 0 18 6 18 15 0 5-3 10-8 12 7 2 12 8 12 16 0 10-8 17-20 17h-24Zm14-29h8c3 0 5-2 5-5s-2-5-5-5h-8v10Zm0 20h10c4 0 6-2 6-6s-2-6-6-6h-10v12Z" fill="#B75844"/>
  <path d="M56 142h80" stroke="#645A4C" stroke-width="6" stroke-linecap="round"/>
</svg>
